<svg width="34" height="35" viewBox="0 0 34 35" fill="none" xmlns="http://www.w3.org/2000/svg">
<path d="M18.4614 0.74115H15.5376V14.7732H18.4614V0.74115Z" fill="#FDC801"/>
<path d="M30.013 6.76817L27.9456 4.70074L18.0235 14.6229L20.0909 16.6903L30.013 6.76817Z" fill="#FDC801"/>
<path d="M33.9128 19.2022L33.9128 16.2784L19.8807 16.2784L19.8807 19.2022L33.9128 19.2022Z" fill="#FDC801"/>
<path d="M27.886 30.7532L29.9534 28.6858L20.0313 18.7637L17.9638 20.8311L27.886 30.7532Z" fill="#FDC801"/>
<path d="M15.4511 34.653L18.3749 34.653L18.3749 20.6208L15.4511 20.6208L15.4511 34.653Z" fill="#FDC801"/>
<path d="M3.89987 28.6267L5.96729 30.6941L15.8894 20.772L13.822 18.7046L3.89987 28.6267Z" fill="#FDC801"/>
<path d="M-3.95261e-10 16.192L0 19.1158L14.0321 19.1158L14.0321 16.192L-3.95261e-10 16.192Z" fill="#FDC801"/>
<path d="M6.02737 4.64004L3.95996 6.70746L13.8821 16.6296L15.9495 14.5622L6.02737 4.64004Z" fill="#FDC801"/>
</svg>