<svg width="34" height="34" viewBox="0 0 34 34" fill="none" xmlns="http://www.w3.org/2000/svg">
<path d="M19.1412 0.643463H14.7209V7.66863H19.1412V0.643463Z" fill="#FDC801"/>
<path d="M30.288 7.08344L27.1624 3.95789L22.1948 8.92536L25.3204 12.0509L30.288 7.08344Z" fill="#FDC801"/>
<path d="M33.6139 19.5271L33.6139 15.1068L26.5887 15.1068L26.5887 19.5271L33.6139 19.5271Z" fill="#FDC801"/>
<path d="M27.1745 30.6745L30.3 27.5489L25.3326 22.5814L22.207 25.707L27.1745 30.6745Z" fill="#FDC801"/>
<path d="M14.7295 34L19.1498 34L19.1498 26.9748L14.7295 26.9748L14.7295 34Z" fill="#FDC801"/>
<path d="M3.5829 27.5608L6.7085 30.6863L11.676 25.7189L8.55044 22.5933L3.5829 27.5608Z" fill="#FDC801"/>
<path d="M0.257324 15.1162L0.257324 19.5365L7.28251 19.5365L7.28251 15.1162L0.257324 15.1162Z" fill="#FDC801"/>
<path d="M6.69659 3.9687L3.57104 7.0943L8.53852 12.0618L11.6641 8.93625L6.69659 3.9687Z" fill="#FDC801"/>
</svg>